<svg xmlns="http://www.w3.org/2000/svg" width="1920" height="1080" viewBox="0 0 1920 1080">
  <defs>
    <linearGradient id="officeGrad2" x1="0%" y1="0%" x2="100%" y2="100%">
      <stop offset="0%" style="stop-color:#f8fafc;stop-opacity:1" />
      <stop offset="50%" style="stop-color:#e2e8f0;stop-opacity:1" />
      <stop offset="100%" style="stop-color:#1e3a8a;stop-opacity:1" />
    </linearGradient>
  </defs>
  <rect width="1920" height="1080" fill="url(#officeGrad2)"/>
  <!-- Modern workspace illustration -->
  <rect x="300" y="250" width="500" height="350" fill="#ffffff" rx="8" opacity="0.9"/>
  <rect x="320" y="270" width="460" height="50" fill="#1e3a8a" rx="4"/>
  <rect x="340" y="290" width="180" height="15" fill="#ffffff" rx="2"/>
  <rect x="900" y="300" width="450" height="300" fill="#ffffff" rx="8" opacity="0.9"/>
  <rect x="920" y="320" width="410" height="50" fill="#1e3a8a" rx="4"/>
  <rect x="940" y="340" width="190" height="15" fill="#ffffff" rx="2"/>
  <rect x="300" y="650" width="1050" height="200" fill="#f97316" rx="8" opacity="0.8"/>
  <rect x="320" y="670" width="1010" height="40" fill="#ffffff" rx="4"/>
  <circle cx="400" cy="450" r="25" fill="#64748b" opacity="0.3"/>
  <circle cx="500" cy="450" r="25" fill="#64748b" opacity="0.3"/>
  <circle cx="1000" cy="500" r="25" fill="#64748b" opacity="0.3"/>
  <circle cx="1100" cy="500" r="25" fill="#64748b" opacity="0.3"/>
</svg>
